<svg width="65" height="64" viewBox="0 0 65 64" fill="none" xmlns="http://www.w3.org/2000/svg">
<g clip-path="url(#clip0_316_340)">
<path d="M1.48928 40.4784C0.734741 37.7305 0.350586 34.8764 0.350586 32.0017C0.350586 18.8789 8.59227 6.88 20.8605 2.14828L22.469 6.31124C11.9088 10.3851 4.81612 20.7085 4.81612 32.0017C4.81612 34.4789 5.14536 36.9321 5.79359 39.2963L1.48928 40.4784Z" fill="#58D09E"/>
<path d="M20.6461 2.25047C23.3 1.21283 26.0984 0.53244 28.9573 0.231955C42.0082 -1.13975 54.8029 5.80255 60.7911 17.5089L56.8191 19.5438C51.6637 9.46731 40.6554 3.49257 29.4241 4.67303C26.9604 4.93196 24.5551 5.51583 22.2717 6.40763L20.6461 2.25047Z" fill="#58D09E"/>
<path d="M46.9978 55.2685C55.7122 49.7137 60.566 39.8557 59.6642 29.5475C59.3446 25.895 58.3309 22.4066 56.6562 19.1861L60.6132 17.1219C62.5607 20.866 63.7404 24.9148 64.1117 29.1584C65.1594 41.1339 59.5229 52.5821 49.3979 59.0351L46.9978 55.2685Z" fill="black"/>
<path d="M22.8532 25.3992C25.4425 25.3992 27.5518 26.78 28.6357 29.1887L28.7214 29.3772L33.0702 27.9004L32.9777 27.6777C31.2937 23.5764 27.4146 21.0272 22.8532 21.0272C19.6462 21.0272 17.0397 22.0552 14.8858 24.1657C12.7456 26.2627 11.6619 28.9009 11.6619 32.0085C11.6619 35.0888 12.7456 37.7133 14.8858 39.8103C17.0397 41.9209 19.6462 42.9488 22.8532 42.9488C27.4146 42.9488 31.2937 40.3996 32.9777 36.3017L33.0702 36.0791L28.7145 34.5988L28.6322 34.7941C27.6616 37.1617 25.5009 38.5768 22.8532 38.5768C21.049 38.5768 19.5262 37.9464 18.3189 36.706C17.098 35.4485 16.4806 33.8691 16.4806 32.012C16.4806 30.1412 17.0842 28.5925 18.3189 27.2768C19.5228 26.0297 21.049 25.3992 22.8532 25.3992Z" fill="black"/>
<path d="M50.0921 21.4316L43.8946 37.1137L37.656 21.4316H32.5525L41.3017 42.8357L35.0768 57.932L39.5389 58.8195L54.9144 21.4316H50.0921Z" fill="black"/>
<path d="M35.8751 55.9859L34.7879 58.6174C34.5718 59.1382 34.0779 59.4909 33.5223 59.5149C33.1554 59.5287 32.785 59.539 32.4111 59.539C19.6147 59.5322 8.29316 50.5107 5.48763 38.08L1.13184 39.0634C2.70609 46.0359 6.65717 52.3643 12.2579 56.8871C17.9239 61.4611 25.0611 63.9863 32.3631 64C32.3734 64 32.4282 64 32.4282 64C32.857 64 33.2822 63.9897 33.7075 63.9727C35.9986 63.8767 38.0462 62.4411 38.9207 60.3134L40.3406 56.8733L35.8751 55.9859Z" fill="black"/>
</g>
<defs>
<clipPath id="clip0_316_340">
<rect width="64" height="64" fill="white" transform="translate(0.350586)"/>
</clipPath>
</defs>
</svg>
