<svg width="65" height="64" viewBox="0 0 65 64" fill="none" xmlns="http://www.w3.org/2000/svg">
<path fill-rule="evenodd" clip-rule="evenodd" d="M11.438 55.604L9.70203 9.37601C9.64736 7.84935 10.8207 6.55735 12.3447 6.46401L43.1554 4.53735L45.5087 5.33335L48.5687 4.19868L51.6567 4.00535C53.2074 3.90668 54.5447 5.08401 54.6447 6.63468C54.6487 6.69468 54.65 6.75601 54.65 6.81735V57.1867C54.6487 58.7427 53.386 60.0027 51.83 60.0013C51.7887 60.0013 51.7474 60 51.7074 59.9987L14.126 58.3107C12.662 58.2453 11.494 57.0693 11.438 55.604Z" fill="#FF4081"/>
<path fill-rule="evenodd" clip-rule="evenodd" d="M48.566 4.19867L43.1566 4.53467L42.894 10.8827C42.8846 11.1147 43.0646 11.3093 43.2966 11.32C43.394 11.324 43.4886 11.2947 43.566 11.236L46.03 9.36534L48.1126 11.0067C48.294 11.1507 48.5593 11.12 48.702 10.9387C48.7633 10.86 48.7953 10.7627 48.7926 10.6627L48.5686 4.2L48.566 4.19867ZM44.3553 25.4507C43.3673 26.22 35.986 26.744 35.986 25.6493C36.1433 21.4693 34.2726 21.2867 33.2313 21.2867C32.246 21.2867 30.582 21.584 30.582 23.824C30.582 26.1053 33.0126 27.3933 35.866 28.9053C39.918 31.0533 44.826 33.6547 44.826 40.1947C44.826 46.4667 39.73 49.928 33.234 49.928C26.5286 49.928 20.6673 47.2147 21.3286 37.8093C21.5886 36.7067 30.1153 36.9693 30.1153 37.8093C30.0086 41.6907 30.894 42.832 33.1286 42.832C34.8446 42.832 35.6233 41.8853 35.6233 40.2947C35.6233 37.884 33.0926 36.4613 30.178 34.8267C26.2326 32.612 21.59 30.0053 21.59 24.0213C21.59 18.052 25.6953 14.0707 33.0246 14.0707C40.354 14.0707 44.3553 17.992 44.3553 25.4507Z" fill="white"/>
</svg>
