<svg width="71" height="64" viewBox="0 0 71 64" fill="none" xmlns="http://www.w3.org/2000/svg">
<g clip-path="url(#clip0_316_277)">
<path d="M35.6569 38.7725C39.3293 38.7725 42.3063 35.7403 42.3063 32C42.3063 28.2597 39.3293 25.2275 35.6569 25.2275C31.9846 25.2275 29.0076 28.2597 29.0076 32C29.0076 35.7403 31.9846 38.7725 35.6569 38.7725Z" fill="#087EA4"/>
<path d="M35.6569 47.2381C54.0186 47.2381 68.9037 40.4158 68.9037 32C68.9037 23.5843 54.0186 16.7619 35.6569 16.7619C17.2952 16.7619 2.41016 23.5843 2.41016 32C2.41016 40.4158 17.2952 47.2381 35.6569 47.2381Z" stroke="#087EA4" stroke-width="3"/>
<path d="M22.7003 39.6191C31.8812 55.8152 45.1246 65.5336 52.2803 61.3257C59.4361 57.1179 57.7944 40.5771 48.6136 24.381C39.4328 8.18481 26.1893 -1.5336 19.0336 2.67429C11.8778 6.88217 13.5195 23.4229 22.7003 39.6191Z" stroke="#087EA4" stroke-width="3"/>
<path d="M22.7002 24.381C13.5193 40.5771 11.8777 57.1179 19.0334 61.3257C26.1892 65.5336 39.4326 55.8152 48.6134 39.6191C57.7943 23.4229 59.4359 6.88217 52.2802 2.67429C45.1244 -1.5336 31.881 8.18481 22.7002 24.381Z" stroke="#087EA4" stroke-width="3"/>
</g>
<defs>
<clipPath id="clip0_316_277">
<rect width="69.8182" height="64" fill="white" transform="translate(0.747803)"/>
</clipPath>
</defs>
</svg>
