<svg width="64" height="64" viewBox="0 0 64 64" fill="none" xmlns="http://www.w3.org/2000/svg">
<path d="M56.2668 29.4667L34.5334 7.73332C33.8667 7.06666 32.9334 6.66666 32.0001 6.66666C31.0667 6.66666 30.1334 7.06666 29.4667 7.73332L24.8001 12.4L30.2668 17.8667C30.8001 17.6 31.3334 17.4667 32.0001 17.4667C34.2667 17.4667 36.0001 19.2 36.0001 21.4667C36.0001 22.1333 35.8668 22.6667 35.6001 23.2L40.9334 28.5333C41.4668 28.2667 42.0001 28.1333 42.6667 28.1333C44.9334 28.1333 46.6667 29.8667 46.6667 32.1333C46.6667 34.4 44.9334 36.1333 42.6667 36.1333C40.4001 36.1333 38.6667 34.4 38.6667 32.1333C38.6667 31.4667 38.8001 30.9333 39.0667 30.4L33.7334 25.0667C33.6001 25.0667 33.4667 25.2 33.3334 25.2V39.0667C34.9334 39.6 36.0001 41.0667 36.0001 42.8C36.0001 45.0667 34.2667 46.8 32.0001 46.8C29.7334 46.8 28.0001 45.0667 28.0001 42.8C28.0001 41.0667 29.0667 39.6 30.6667 39.0667V25.0667C29.0667 24.5333 28.0001 23.0667 28.0001 21.3333C28.0001 20.6667 28.1334 20.1333 28.4001 19.6L22.9334 14.1333L7.73342 29.4667C7.06675 30.1333 6.66675 31.0667 6.66675 32C6.66675 32.9333 7.06675 33.8667 7.73342 34.5333L29.4667 56.2667C30.1334 56.9333 31.0667 57.3333 32.0001 57.3333C32.9334 57.3333 33.8667 56.9333 34.5334 56.2667L56.2668 34.5333C56.9334 33.8667 57.3334 32.9333 57.3334 32C57.3334 31.0667 56.9334 30.1333 56.2668 29.4667Z" fill="#F4511E"/>
</svg>
